# xmcd
#
# Track frame offsets:
#	182
#	11917
#	21355
#	33117
#	43885
#	55862
#	74887
#	87852
#	97377
#	106860
#
# Disc length: 1561 seconds
#
# Revision: 0
# Processed by: cddbd v1.5.2PL0 Copyright (c) Steve Scherf et al.
# Submitted via: audiograbber 1.83.01
#
DISCID=8b06170a
DTITLE=Various Artist - Only You - Rock 'N' Roll Hall Of Fame - Vol.XIV
DYEAR=1900
DGENRE=Rock
TTITLE0=Platters - Only You
TTITLE1=Shirelles - Dedicated to the One I Love
TTITLE2=Robert Parker - Barefootin'
TTITLE3=Santo and Johnny - Sleep Walk
TTITLE4=Chad and Jeremy - A Summer Song
TTITLE5=B.J. Thomas - Rock 'n' Roll Lullaby
TTITLE6=Jerry Butler - Let It Be Me
TTITLE7=Lovin' Spoonful - Do You Believe in Magic
TTITLE8=Dave "Baby" Cortez - Happy Organ
TTITLE9=Tommy Roe - Jam Up and Jelly Tight
EXTD=
EXTT0=The Platters
EXTT1=The Shirelles
EXTT2=Robert Parker
EXTT3=Santo and Johnny
EXTT4=Chad and Jeremy
EXTT5=B. J. Thomas
EXTT6=Jerry Butler
EXTT7=The Lovin' Spoonful
EXTT8=Dave "Baby"  Cortez
EXTT9=Tommy Roe
PLAYORDER=
